# xmcd
#
# Track frame offsets:
#        150
#        25257
#        51050
#        69330
#
# Disc length: 1149 seconds
#
# Revision: 1
# Processed by: cddbd v1.5.1PL0 Copyright (c) Steve Scherf et al.
# Submitted via: ExactAudioCopy v0.95b2
#
DISCID=2b047b04
DTITLE=Elisa Fiorillo - High Bright Night
DYEAR=1988
DGENRE=Pop
TTITLE0=High Bright Night (Dancin' Through The Night Mix)
TTITLE1=How Can I Forget You (Dance Mix)
TTITLE2=Forgive Me For Dreaming (Single Version)
TTITLE3=More Than Love
EXTD=
EXTT0=
EXTT1=
EXTT2=
EXTT3=
PLAYORDER=
